<svg xmlns="http://www.w3.org/2000/svg" width="48" height="48" id="qrcode"><path d="M22.74 25.26v12.56H10.18V25.26ZM32.8 35.31v2.51h-2.52v-2.51Zm5 0v2.51h-2.49v-2.51Zm-5-10v2.51h2.51v-2.56h2.51v7.54h-7.54v-2.52h-2.51v7.54h-2.51V25.26Zm-12.57 2.46h-7.54v7.52h7.54v-7.52Zm-2.51 2.51v2.52H15.2v-2.52Zm5-20.1v12.56H10.18V10.18Zm15.08 0v12.56H25.26V10.18Zm-17.57 2.51h-7.54v7.54h7.54v-7.54Zm15.08 0h-7.54v7.54h7.54v-7.54ZM17.72 15.2v2.52H15.2V15.2Zm15.08 0v2.52h-2.52V15.2Z" data-name="Layer 3"></path></svg>